<svg width="215" height="74" viewBox="0 0 215 74" fill="none" xmlns="http://www.w3.org/2000/svg">
<g filter="url(#filter0_d_13_138)">
<path d="M8.32124 65.4772V57.754H11.3913V56.7794H4.0258V57.754H7.09581V65.4772H8.32124ZM10.5044 65.4772L11.5364 62.8582H15.4319L16.4381 65.4772H17.7925L14.1936 56.7794H12.8392L9.25321 65.4772H10.5044ZM15.045 61.8836H11.9233L13.4842 57.8271H13.51L15.045 61.8836ZM23.91 65.4772V64.5027H19.034V56.7794H17.8086V65.4772H23.91ZM30.4918 65.4772V64.5027H25.3192V61.4938H30.1048V60.5192H25.3192V57.754H30.4531V56.7794H24.0938V65.4772H30.4918ZM32.2364 65.4772V58.4971H32.2622L37.0736 65.4772H38.4151V56.7794H37.2542V63.8327H37.2284L32.3783 56.7794H31.0755V65.4772H32.2364ZM42.8299 65.4772V57.754H45.9015V56.7794H38.5361V57.754H41.6061V65.4772H42.8315H42.8299ZM50.0099 65.4772V56.7794H48.7845V65.4772H50.0099ZM52.335 65.4772V58.4971H52.3608L57.1722 65.4772H58.5137V56.7794H57.3528V63.8327H57.327L52.4769 56.7794H51.1741V65.4772H52.335ZM66.2597 65.4772V58.3874H69.0202V56.7794H61.4741V58.3874H64.2345V65.4772H66.2597ZM76.1824 65.4772V63.8692H71.2162V61.7374H75.6794V60.2512H71.2162V58.3874H76.0793V56.7794H69.1911V65.4772H76.1824ZM80.7907 65.6721C81.3583 65.6721 81.8791 65.5914 82.3515 65.4285C82.8126 65.2733 83.2355 65.0313 83.5947 64.7172C83.9539 64.4031 84.2419 64.0235 84.4412 63.6012C84.6572 63.1627 84.7895 62.6724 84.841 62.1272H82.8804C82.803 62.712 82.5901 63.1825 82.2419 63.5403C81.8936 63.8982 81.4099 64.0763 80.7907 64.0763C80.336 64.0763 79.949 63.9926 79.6298 63.8266C79.3194 63.6668 79.054 63.4391 78.8558 63.1627C78.6544 62.8787 78.5081 62.5632 78.4237 62.2308C78.3329 61.882 78.2875 61.5241 78.2882 61.1649C78.2882 60.7842 78.3334 60.4142 78.4237 60.0563C78.5067 59.716 78.653 59.3922 78.8558 59.1001C79.0525 58.8208 79.3181 58.5909 79.6298 58.4301C79.949 58.2626 80.336 58.1803 80.7907 58.1803C81.1454 58.1796 81.4946 58.2636 81.8058 58.4244C82.117 58.5852 82.3801 58.8176 82.5708 59.1001C82.6917 59.2828 82.7691 59.4838 82.803 59.7031H84.7637C84.7145 59.2331 84.5654 58.7773 84.3251 58.3631C84.1025 57.9839 83.8022 57.6505 83.4415 57.3824C83.0782 57.1153 82.6677 56.9111 82.229 56.7794C81.764 56.6394 81.2787 56.5695 80.7907 56.5723C80.0861 56.5723 79.4524 56.6896 78.8881 56.9256C78.3253 57.1616 77.8497 57.486 77.4627 57.9002C77.0757 58.3143 76.779 58.7986 76.5726 59.3559C76.3618 59.938 76.2571 60.5497 76.2631 61.1649C76.2631 61.7983 76.3663 62.3892 76.5726 62.9373C76.779 63.4855 77.0757 63.9621 77.4627 64.3687C77.8497 64.7753 78.3253 65.0935 78.8881 65.325C79.4524 65.5564 80.0861 65.6721 80.7907 65.6721ZM87.3612 65.4772V61.7252H91.0891V65.4772H93.1143V56.7794H91.0891V60.1172H87.3612V56.7794H85.3361V65.4772H87.3612ZM95.2733 65.4772V58.4971H95.2991L100.109 65.4772H101.45V56.7794H100.289V63.8327H100.264L95.4136 56.7794H94.1108V65.4772H95.2717H95.2733ZM103.829 65.4772V56.7794H102.603V65.4772H103.829ZM108.811 65.6721C109.988 65.6721 110.917 65.3676 111.597 64.7585C112.276 64.1494 112.678 63.2967 112.797 62.2003H111.571C111.549 62.5426 111.471 62.8796 111.339 63.1992C111.223 63.4951 111.043 63.765 110.811 63.9924C110.579 64.2198 110.3 64.3997 109.991 64.521C109.649 64.6519 109.283 64.7161 108.914 64.7098C108.423 64.7224 107.936 64.622 107.495 64.4174C107.11 64.2309 106.777 63.9618 106.521 63.6317C106.258 63.2832 106.068 62.8904 105.96 62.4744C105.838 62.0145 105.777 61.5417 105.78 61.0674C105.78 60.6121 105.839 60.1736 105.96 59.7518C106.08 59.33 106.267 58.9539 106.521 58.625C106.775 58.2961 107.097 58.0342 107.489 57.8392C107.879 57.6443 108.35 57.5469 108.901 57.5469C109.546 57.5469 110.103 57.7007 110.572 58.0098C111.039 58.3189 111.342 58.7818 111.481 59.3985H112.707C112.649 58.9667 112.5 58.5503 112.268 58.1742C112.053 57.8303 111.768 57.5301 111.43 57.2911C111.083 57.0503 110.694 56.8689 110.282 56.7551C109.851 56.6332 109.395 56.5723 108.914 56.5723C108.208 56.5723 107.582 56.6926 107.037 56.9317C106.51 57.158 106.043 57.4931 105.67 57.9123C105.304 58.3265 105.027 58.8107 104.838 59.3681C104.645 59.9453 104.55 60.5475 104.554 61.1527C104.554 61.7862 104.641 62.3785 104.819 62.9312C104.996 63.484 105.259 63.9621 105.612 64.3687C105.964 64.7753 106.407 65.0935 106.941 65.325C107.473 65.5564 108.097 65.6721 108.811 65.6721ZM117.328 65.6721C118.058 65.6721 118.698 65.5488 119.25 65.3006C119.8 65.0524 120.261 64.7174 120.63 64.2956C121.001 63.8738 121.277 63.3881 121.462 62.8399C121.647 62.2917 121.739 61.7207 121.739 61.1283C121.739 60.5345 121.647 59.965 121.462 59.4168C121.287 58.8854 121.004 58.391 120.63 57.9611C120.253 57.5335 119.782 57.1885 119.25 56.95C118.7 56.6987 118.058 56.5723 117.328 56.5723C116.597 56.5723 115.957 56.6987 115.406 56.95C114.873 57.1885 114.403 57.5335 114.026 57.9611C113.655 58.3829 113.379 58.8686 113.194 59.4168C113.008 59.965 112.916 60.536 112.916 61.1283C112.916 61.7222 113.008 62.2917 113.194 62.8399C113.379 63.3881 113.656 63.8738 114.026 64.2956C114.396 64.7174 114.856 65.0524 115.406 65.3006C115.956 65.5488 116.597 65.6721 117.328 65.6721ZM117.328 64.7098C116.768 64.7098 116.288 64.6062 115.883 64.3992C115.489 64.2008 115.15 63.9194 114.89 63.5769C114.628 63.2288 114.436 62.8387 114.322 62.4257C114.081 61.5758 114.081 60.6809 114.322 59.831C114.436 59.418 114.629 59.028 114.89 58.6798C115.15 58.3372 115.489 58.0559 115.883 57.8575C116.286 57.6504 116.77 57.5469 117.328 57.5469C117.887 57.5469 118.368 57.6504 118.772 57.8575C119.166 58.0559 119.506 58.3372 119.766 58.6798C120.024 59.0209 120.212 59.4046 120.333 59.831C120.574 60.6809 120.574 61.5758 120.333 62.4257C120.219 62.8386 120.027 63.2287 119.766 63.5769C119.506 63.9194 119.166 64.2008 118.772 64.3992C118.369 64.6062 117.886 64.7098 117.328 64.7098ZM128.45 65.4772V64.5027H123.574V56.7794H122.349V65.4772H128.45ZM132.529 65.6721C133.26 65.6721 133.9 65.5488 134.451 65.3006C135.001 65.0524 135.462 64.7174 135.832 64.2956C136.203 63.8738 136.478 63.3881 136.664 62.8399C136.849 62.2917 136.941 61.7207 136.941 61.1283C136.941 60.5345 136.849 59.965 136.664 59.4168C136.488 58.8854 136.206 58.391 135.832 57.9611C135.455 57.5335 134.984 57.1885 134.451 56.95C133.902 56.6987 133.26 56.5723 132.529 56.5723C131.799 56.5723 131.159 56.6987 130.608 56.95C130.075 57.1885 129.604 57.5335 129.227 57.9611C128.856 58.3829 128.581 58.8686 128.395 59.4168C128.21 59.965 128.118 60.536 128.118 61.1283C128.118 61.7222 128.21 62.2917 128.395 62.8399C128.581 63.3881 128.858 63.8738 129.227 64.2956C129.598 64.7174 130.058 65.0524 130.608 65.3006C131.157 65.5488 131.799 65.6721 132.529 65.6721ZM132.529 64.7098C131.97 64.7098 131.489 64.6062 131.085 64.3992C130.691 64.2008 130.351 63.9194 130.092 63.5769C129.83 63.2288 129.638 62.8387 129.524 62.4257C129.283 61.5758 129.283 60.6809 129.524 59.831C129.638 59.418 129.83 59.028 130.092 58.6798C130.351 58.3372 130.691 58.0559 131.085 57.8575C131.488 57.6504 131.972 57.5469 132.529 57.5469C133.089 57.5469 133.569 57.6504 133.974 57.8575C134.368 58.0559 134.708 58.3372 134.967 58.6798C135.225 59.0209 135.414 59.4046 135.535 59.831C135.776 60.6809 135.776 61.5758 135.535 62.4257C135.421 62.8386 135.229 63.2287 134.967 63.5769C134.708 63.9194 134.368 64.2008 133.974 64.3992C133.571 64.6062 133.087 64.7098 132.529 64.7098ZM141.278 65.6721C142.439 65.6721 143.334 65.3935 143.961 64.8377C144.59 64.2819 144.903 63.4474 144.903 62.3343V56.7794H143.678V62.3343C143.678 63.114 143.473 63.7048 143.065 64.1068C142.657 64.5088 142.06 64.7098 141.278 64.7098C140.453 64.7098 139.821 64.5088 139.382 64.1068C138.944 63.7048 138.724 63.114 138.724 62.3343V56.7794H137.499V62.3343C137.499 63.4962 137.833 64.3428 138.499 64.8742C139.165 65.4072 140.092 65.6721 141.278 65.6721ZM147.201 65.4772V61.7618H150.193C150.495 61.7618 150.735 61.8044 150.916 61.8897C151.089 61.9689 151.239 62.0858 151.354 62.2308C151.467 62.3724 151.548 62.5399 151.599 62.7302C151.651 62.9206 151.695 63.1216 151.728 63.3332C151.772 63.5449 151.798 63.7596 151.806 63.9789C151.815 64.1982 151.822 64.4037 151.832 64.5941C151.841 64.7844 151.861 64.958 151.89 65.1118C151.91 65.2466 151.971 65.3733 152.064 65.4772H153.431C153.3 65.3282 153.202 65.1564 153.141 64.9717C153.075 64.7747 153.025 64.573 152.992 64.3687C152.958 64.1548 152.936 63.9393 152.928 63.7231C152.92 63.5076 152.907 63.2924 152.889 63.0774C152.865 62.8726 152.828 62.6693 152.78 62.4683C152.736 62.2821 152.662 62.1033 152.56 61.9384C152.459 61.7774 152.323 61.6384 152.16 61.5303C151.964 61.4058 151.742 61.3227 151.509 61.2867V61.2623C152.069 61.1161 152.475 60.8436 152.728 60.4462C152.983 60.0487 153.109 59.5858 153.109 59.0574C153.109 58.3509 152.862 57.7936 152.367 57.3885C151.873 56.9819 151.187 56.7794 150.309 56.7794H145.975V65.4772H147.201ZM149.755 60.7872H147.201V57.754H150.245C150.822 57.754 151.238 57.891 151.496 58.1682C151.754 58.4438 151.883 58.8016 151.883 59.2402C151.883 59.5569 151.825 59.8142 151.709 60.0137C151.599 60.2065 151.439 60.3699 151.245 60.4888C151.039 60.611 150.808 60.6919 150.567 60.7263C150.309 60.7674 150.039 60.7872 149.755 60.7872ZM33.0233 46.3883V43.6474H4V46.3883H33.0233ZM43.0121 39.5909V24.7352C43.0121 21.8481 43.5152 19.7741 44.5213 18.5133C45.5274 17.2525 47.1527 16.6221 49.3972 16.6221C51.3708 16.6221 52.7446 17.1977 53.5185 18.3488C54.2925 19.5 54.6794 21.2451 54.6794 23.584V39.5909H62.922V22.1587C62.922 20.4045 62.7576 18.8057 62.4286 17.3621C62.0997 15.9186 61.5289 14.6943 60.7163 13.6893C59.9036 12.6843 58.7911 11.8986 57.3786 11.3321C55.9661 10.7657 54.157 10.4824 51.9513 10.4824C50.2099 10.4824 48.5072 10.857 46.8432 11.6062C45.1792 12.3554 43.8264 13.5523 42.7799 15.1968H42.6058V11.2499H34.7695V39.5909H43.0121ZM82.3741 40.3035C84.7346 40.3035 86.8727 39.9563 88.7882 39.262C90.7038 38.5676 92.3387 37.5718 93.6931 36.2744C95.0476 34.977 96.0924 33.4147 96.8277 31.5874C97.5629 29.7602 97.9305 27.7136 97.9305 25.4478C97.9305 23.182 97.5629 21.1263 96.8277 19.2808C96.0924 17.4352 95.0476 15.8638 93.6931 14.5664C92.3387 13.269 90.7038 12.264 88.7882 11.5514C86.8727 10.8388 84.7346 10.4824 82.3741 10.4824C80.0135 10.4824 77.8851 10.8388 75.989 11.5514C74.1583 12.2234 72.4973 13.2505 71.1131 14.5664C69.7586 15.8638 68.7138 17.4352 67.9785 19.2808C67.2433 21.1263 66.8757 23.182 66.8757 25.4478C66.8757 27.7136 67.2433 29.7602 67.9785 31.5874C68.7138 33.4147 69.7586 34.977 71.1131 36.2744C72.4936 37.5879 74.1563 38.6066 75.989 39.262C77.8851 39.9563 80.0135 40.3035 82.3741 40.3035ZM82.3741 34.4928C80.981 34.4928 79.82 34.237 78.8913 33.7253C77.9766 33.2267 77.2084 32.5201 76.6565 31.6697C76.0808 30.7754 75.6778 29.7917 75.4665 28.7643C75.0018 26.5659 75.0018 24.3023 75.4665 22.1039C75.6987 21.0075 76.0954 20.0391 76.6565 19.1985C77.2193 18.3564 77.9851 17.652 78.8913 17.1428C79.82 16.6129 80.981 16.348 82.3741 16.348C83.7672 16.348 84.9378 16.6129 85.8859 17.1428C86.8047 17.6461 87.5812 18.3513 88.1497 19.1985C88.7108 20.0391 89.1075 21.0075 89.3397 22.1039C89.8044 24.3023 89.8044 26.5659 89.3397 28.7643C89.1283 29.7917 88.7254 30.7754 88.1497 31.6697C87.5921 32.5253 86.813 33.2327 85.8859 33.7253C84.9378 34.237 83.7672 34.4928 82.3741 34.4928ZM110.357 39.5909V0.450714H102.115V39.5909H110.357ZM130.04 40.3035C132.4 40.3035 134.539 39.9563 136.454 39.262C138.37 38.5676 140.005 37.5718 141.359 36.2744C142.713 34.977 143.758 33.4147 144.494 31.5874C145.229 29.7602 145.596 27.7136 145.596 25.4478C145.596 23.182 145.229 21.1263 144.494 19.2808C143.758 17.4352 142.713 15.8638 141.359 14.5664C140.005 13.269 138.37 12.264 136.454 11.5514C134.539 10.8388 132.4 10.4824 130.04 10.4824C127.679 10.4824 125.551 10.8388 123.655 11.5514C121.824 12.2234 120.163 13.2505 118.779 14.5664C117.424 15.8638 116.38 17.4352 115.644 19.2808C114.909 21.1263 114.542 23.182 114.542 25.4478C114.542 27.7136 114.909 29.7602 115.644 31.5874C116.38 33.4147 117.424 34.977 118.779 36.2744C120.159 37.5879 121.822 38.6066 123.655 39.262C125.551 39.9563 127.679 40.3035 130.04 40.3035ZM130.04 34.4928C128.647 34.4928 127.486 34.237 126.557 33.7253C125.642 33.2267 124.874 32.5201 124.322 31.6697C123.747 30.7754 123.344 29.7917 123.132 28.7643C122.668 26.5659 122.668 24.3023 123.132 22.1039C123.365 21.0075 123.761 20.0391 124.322 19.1985C124.885 18.3564 125.651 17.652 126.557 17.1428C127.486 16.6129 128.647 16.348 130.04 16.348C131.433 16.348 132.604 16.6129 133.552 17.1428C134.471 17.6461 135.247 18.3513 135.816 19.1985C136.377 20.0391 136.773 21.0075 137.006 22.1039C137.47 24.3023 137.47 26.5659 137.006 28.7643C136.794 29.7917 136.391 30.7754 135.816 31.6697C135.258 32.5253 134.479 33.2327 133.552 33.7253C132.604 34.237 131.433 34.4928 130.04 34.4928ZM162.841 50.2804C166.285 50.2804 169.033 49.8419 171.084 48.9648C173.135 48.0877 174.702 47.0187 175.785 45.7579C176.869 44.4971 177.575 43.1358 177.904 41.674C178.233 40.2122 178.398 38.9148 178.398 37.7819V11.2499H170.561V15.0323H170.445C169.439 13.3878 168.191 12.2183 166.701 11.524C165.211 10.8296 163.48 10.4824 161.506 10.4824C159.416 10.4824 157.568 10.8662 155.963 11.6336C154.393 12.3732 153.015 13.4307 151.928 14.7308C150.82 16.073 149.984 17.5969 149.461 19.2259C148.898 20.9387 148.614 22.7225 148.62 24.5159C148.62 26.4528 148.862 28.2892 149.345 30.0251C149.829 31.761 150.593 33.2777 151.638 34.575C152.697 35.8833 154.07 36.9354 155.643 37.6448C157.269 38.394 159.203 38.7686 161.448 38.7686C163.241 38.7738 165.014 38.409 166.643 37.6997C168.258 37.0131 169.592 35.849 170.445 34.3832H170.561V38.1108C170.6 40.1208 170.087 41.7836 169.023 43.0993C167.959 44.4149 166.266 45.0727 163.944 45.0727C162.473 45.0727 161.177 44.7895 160.055 44.223C158.933 43.6566 158.178 42.6424 157.791 41.1806H149.606C149.723 42.7886 150.197 44.1682 151.029 45.3194C151.849 46.4602 152.918 47.4226 154.163 48.1425C155.421 48.8734 156.814 49.4125 158.342 49.7597C159.871 50.1068 161.371 50.2804 162.841 50.2804ZM163.538 32.9031C162.261 32.9031 161.196 32.6473 160.345 32.1356C159.507 31.6363 158.801 30.961 158.284 30.1622C157.749 29.3267 157.376 28.4078 157.182 27.4487C156.969 26.447 156.862 25.4279 156.862 24.4063C156.862 23.3464 156.988 22.3323 157.24 21.3638C157.491 20.3954 157.897 19.5366 158.459 18.7874C159.02 18.0382 159.716 17.4443 160.548 17.0058C161.38 16.5673 162.377 16.348 163.538 16.348C164.892 16.348 166.014 16.5855 166.904 17.0606C167.794 17.5357 168.51 18.1753 169.052 18.9793C169.594 19.7833 169.981 20.706 170.213 21.7476C170.445 22.7891 170.561 23.8946 170.561 25.0641C170.566 26.0563 170.419 27.044 170.126 27.9968C169.853 28.8957 169.411 29.7407 168.82 30.4911C168.239 31.222 167.504 31.8067 166.614 32.2453C165.724 32.6838 164.699 32.9031 163.538 32.9031ZM188.098 49.513C190.923 49.513 193.128 49.0196 194.715 48.0329C196.302 47.0462 197.54 45.4016 198.43 43.0993L210.968 11.2499H202.435L195.876 30.6555H195.76L188.968 11.2499H180.203L190.71 37.8367C190.942 38.3849 191.058 38.9696 191.058 39.5909C191.058 40.4314 190.797 41.1989 190.274 41.8932C189.752 42.5876 188.949 42.9896 187.866 43.0993C187.053 43.1358 186.24 43.1175 185.428 43.0444C184.615 42.9713 183.822 42.8983 183.048 42.8252V49.2389C183.899 49.312 184.741 49.3759 185.573 49.4307C186.405 49.4856 187.246 49.513 188.098 49.513Z" fill="#4A2F73"/>
</g>
<defs>
<filter id="filter0_d_13_138" x="0" y="0" width="216" height="75" filterUnits="userSpaceOnUse" color-interpolation-filters="sRGB">
<feFlood flood-opacity="0" result="BackgroundImageFix"/>
<feColorMatrix in="SourceAlpha" type="matrix" values="0 0 0 0 0 0 0 0 0 0 0 0 0 0 0 0 0 0 127 0" result="hardAlpha"/>
<feOffset dy="4"/>
<feGaussianBlur stdDeviation="2"/>
<feComposite in2="hardAlpha" operator="out"/>
<feColorMatrix type="matrix" values="0 0 0 0 0 0 0 0 0 0 0 0 0 0 0 0 0 0 0.25 0"/>
<feBlend mode="normal" in2="BackgroundImageFix" result="effect1_dropShadow_13_138"/>
<feBlend mode="normal" in="SourceGraphic" in2="effect1_dropShadow_13_138" result="shape"/>
</filter>
</defs>
</svg>
